<svg xmlns="http://www.w3.org/2000/svg" width="92" height="26" viewBox="0 0 92 26">
    <g fill="#FFF" fill-rule="evenodd">
        <path d="M56.555 14.536c-.697.708-1.575 1.063-2.624 1.063-1.053 0-1.923-.35-2.61-1.049-.687-.7-1.029-1.612-1.029-2.745 0-1.096.348-1.996 1.041-2.7.696-.705 1.566-1.059 2.61-1.059 1.066 0 1.942.351 2.629 1.044.69.699 1.032 1.604 1.032 2.715 0 1.112-.348 2.022-1.05 2.731m.896-8.635a7.267 7.267 0 0 0-3.564-.919c-1.745 0-3.294.589-4.638 1.766-1.535 1.351-2.303 3.042-2.303 5.07 0 1.89.68 3.501 2.038 4.826 1.36 1.326 2.993 1.989 4.915 1.989 1.306 0 2.498-.303 3.582-.904a6.717 6.717 0 0 0 2.567-2.5 6.688 6.688 0 0 0 .937-3.435 6.52 6.52 0 0 0-.933-3.402c-.625-1.051-1.49-1.877-2.601-2.491M63.307 18.508h3.34V0h-3.34zM73.208 5.091H69.86v11.66c0 3.422-.196 4.594-2.9 4.816v3.296c6.288 0 6.248-4.979 6.248-7.211V5.092zM26.279 13.233c-.2.448-.475.843-.816 1.171-.34.332-.746.596-1.208.79-.907.38-2.025.38-2.931 0a3.832 3.832 0 0 1-1.207-.79 3.646 3.646 0 0 1-.816-1.173 3.462 3.462 0 0 1-.295-1.422c0-.506.1-.99.295-1.435.2-.454.47-.848.816-1.18a3.832 3.832 0 0 1 2.673-1.075 3.815 3.815 0 0 1 2.673 1.075c.341.332.616.726.816 1.182a3.6 3.6 0 0 1 .294 1.433c0 .506-.103.983-.294 1.424m1.484-6.27a7.137 7.137 0 0 0-2.267-1.469 7.242 7.242 0 0 0-5.414 0 6.979 6.979 0 0 0-2.267 1.475 6.668 6.668 0 0 0-1.529 2.221 6.67 6.67 0 0 0-.006 5.216 6.887 6.887 0 0 0 1.535 2.226 7.094 7.094 0 0 0 2.267 1.475c.856.349 1.763.526 2.708.525 2.323 0 3.783-1.49 3.783-1.49v1.362h3.253V11.81c0-.906-.18-1.79-.53-2.619a6.742 6.742 0 0 0-1.533-2.226M86.065 13.233c-.2.448-.472.843-.813 1.171a3.862 3.862 0 0 1-1.208.79c-.908.38-2.027.38-2.935 0a3.859 3.859 0 0 1-1.206-.79 3.722 3.722 0 0 1-.818-1.173 3.475 3.475 0 0 1-.291-1.422c0-.506.098-.99.296-1.435.199-.454.469-.848.813-1.18.34-.334.748-.596 1.206-.79a3.834 3.834 0 0 1 1.467-.285 3.837 3.837 0 0 1 2.676 1.074c.341.333.614.727.813 1.183.194.443.294.927.294 1.433s-.1.983-.294 1.424m1.486-6.27a7.128 7.128 0 0 0-2.268-1.469c-1.71-.7-3.7-.7-5.415 0a6.984 6.984 0 0 0-2.267 1.475 6.712 6.712 0 0 0-1.528 2.221 6.669 6.669 0 0 0-.006 5.216 6.923 6.923 0 0 0 1.534 2.226 7.1 7.1 0 0 0 2.267 1.475c.854.349 1.766.526 2.708.525 2.324 0 3.783-1.49 3.783-1.49v1.362h3.252V11.81a6.75 6.75 0 0 0-.525-2.619 6.828 6.828 0 0 0-1.535-2.226M35.816 12.003v6.505h-3.34v-13.4h3.37v1.161c.2-.194.445-.372.737-.535a6.038 6.038 0 0 1 1.89-.675c.33-.06.654-.088.961-.088.68 0 1.333.103 1.961.313a4.78 4.78 0 0 1 1.671.967c.486.435.875.998 1.17 1.687.293.689.44 1.515.44 2.46v8.11h-3.339v-7.27c0-.37-.017-.682-.043-.94v-.002a6.435 6.435 0 0 0-.076-.46c-.247-1.251-1.42-2.113-2.629-2.006 0 0-1.67.06-2.373 1.574 0 0-.419.707-.4 2.599M9.586 18.3l5.925-13.209h-3.829l-3.944 9.047-3.91-9.047H0l5.87 13.21-2.943 6.562h3.718l2.939-6.558h.004z"/>
    </g>
</svg>
